<?xml version="1.0" encoding="UTF-8" standalone="no"?>
<svg
   width="1024"
   height="1024"
   viewBox="0 0 10240 10240"
   version="1.1"
   id="svg50"
   sodipodi:docname="logo.svg"
   inkscape:version="1.1.2 (0a00cf5339, 2022-02-04)"
   xmlns:inkscape="http://www.inkscape.org/namespaces/inkscape"
   xmlns:sodipodi="http://sodipodi.sourceforge.net/DTD/sodipodi-0.dtd"
   xmlns="http://www.w3.org/2000/svg"
   xmlns:svg="http://www.w3.org/2000/svg">
  <defs
     id="defs54" />
  <sodipodi:namedview
     id="namedview52"
     pagecolor="#ffffff"
     bordercolor="#666666"
     borderopacity="1.0"
     inkscape:pageshadow="2"
     inkscape:pageopacity="0.0"
     inkscape:pagecheckerboard="0"
     showgrid="false"
     inkscape:zoom="0.99298784"
     inkscape:cx="803.13169"
     inkscape:cy="320.24561"
     inkscape:window-width="1902"
     inkscape:window-height="1848"
     inkscape:window-x="4484"
     inkscape:window-y="146"
     inkscape:window-maximized="1"
     inkscape:current-layer="svg50" />
  <g
     id="g12386"
     transform="matrix(1.5690819,0,0,1.5690819,-2958.6185,-2096.9248)">
    <g
       fill="#4b8a21"
       id="g10">
      <g
         id="g8">
        <path
           d="m 6013,6953 c -10,-4 -13,-155 -13,-711 0,-389 3,-717 6,-729 5,-16 26,-28 97,-52 51,-18 175,-61 277,-97 422,-151 463,-164 512,-164 h 48 v 374 c 0,206 2,380 5,388 3,8 -80,103 -202,234 -115,121 -284,303 -377,405 -176,191 -335,360 -339,358 -1,0 -8,-3 -14,-6 z"
           id="path2" />
        <path
           d="m 7400,5466 c 0,-33 2,-36 31,-36 h 30 l -21,30 c -31,44 -40,45 -40,6 z"
           id="path4" />
        <path
           d="m 7490,5369 c 0,-30 8,-43 50,-83 38,-36 56,-47 77,-44 26,3 24,6 -50,83 l -76,80 z"
           id="path6" />
      </g>
    </g>
    <g
       fill="#64a520"
       id="g18">
      <g
         id="g16">
        <path
           d="m 5147,7778 c -15,-12 -16,-110 -20,-1183 -2,-643 -1,-1180 1,-1192 3,-16 17,-26 56,-39 129,-42 362,-126 371,-135 5,-5 17,-9 27,-9 21,0 206,-63 246,-84 15,-7 50,-19 77,-25 28,-7 68,-20 90,-30 22,-9 78,-30 125,-45 89,-29 121,-40 695,-242 198,-69 416,-145 485,-169 69,-23 135,-47 145,-52 11,-6 99,-36 195,-67 96,-32 193,-65 215,-75 22,-9 85,-32 140,-50 55,-19 110,-40 122,-47 12,-8 31,-14 42,-14 10,0 56,-13 102,-30 77,-27 84,-28 101,-13 47,42 5,122 -183,355 -48,60 -156,183 -241,275 -86,93 -182,199 -214,238 -33,38 -91,103 -129,145 -39,41 -93,100 -120,130 -287,317 -543,580 -559,574 -8,-3 -10,-109 -8,-384 3,-367 3,-380 -16,-380 -18,0 -117,34 -482,164 -102,36 -226,79 -277,97 -71,24 -92,36 -97,52 -11,40 -7,1377 4,1377 25,0 0,33 -143,183 -85,89 -210,221 -278,294 -182,192 -408,393 -444,393 -6,0 -19,-6 -28,-12 z"
           id="path12" />
        <path
           d="m 2928,3483 c -15,-4 -16,-46 -15,-518 l 2,-514 70,-6 c 39,-4 93,-7 120,-8 l 50,-2 3,418 c 2,429 4,441 40,405 9,-9 12,-5 11,18 -1,24 -19,45 -104,122 -104,93 -119,101 -177,85 z"
           id="path14" />
      </g>
    </g>
    <g
       fill="#a8cd0a"
       id="g26">
      <g
         id="g24">
        <path
           d="m 5070,7717 c -41,-35 -178,-169 -305,-297 -126,-129 -440,-446 -696,-705 -530,-535 -780,-790 -1415,-1445 -371,-383 -522,-550 -636,-703 -50,-67 -58,-85 -58,-122 0,-45 15,-60 55,-56 17,2 265,77 520,158 44,14 136,42 205,63 69,21 208,65 310,98 102,33 219,69 260,82 41,12 125,37 185,56 61,19 153,48 205,64 110,34 398,124 485,151 33,11 141,44 240,75 177,55 233,72 548,173 105,34 167,49 185,45 27,-6 194,-63 332,-114 41,-15 181,-64 310,-109 129,-45 244,-86 255,-91 11,-5 54,-21 95,-34 128,-42 262,-87 335,-114 80,-29 175,-62 256,-91 31,-10 65,-24 75,-29 10,-6 37,-15 59,-21 43,-10 325,-107 540,-185 72,-26 157,-56 190,-66 33,-9 103,-33 155,-53 52,-19 131,-47 175,-62 44,-15 107,-38 140,-50 33,-13 104,-37 159,-55 94,-30 99,-30 117,-14 11,10 16,21 12,25 -13,12 -154,59 -178,59 -11,0 -25,4 -31,9 -11,12 -203,83 -224,83 -8,1 -20,5 -26,10 -15,11 -384,140 -404,140 -8,1 -20,5 -26,10 -7,5 -70,28 -140,52 -71,24 -291,101 -489,170 -581,205 -606,213 -695,242 -47,15 -94,31 -104,37 -36,18 -154,55 -159,50 -3,-2 -16,2 -29,11 -27,17 -226,89 -248,89 -8,0 -19,3 -25,7 -10,8 -262,99 -372,135 -42,13 -53,21 -54,38 -1,12 0,533 0,1157 1,624 -2,1148 -6,1163 l -8,28 z"
           id="path20" />
        <path
           d="m 2917,3504 c -4,-4 -7,-34 -7,-66 0,-43 4,-58 14,-58 14,0 31,45 21,59 -8,14 32,20 45,7 9,-8 11,-2 8,24 -3,32 -6,35 -38,38 -20,2 -39,0 -43,-4 z"
           id="path22" />
      </g>
    </g>
    <g
       fill="#c0cf02"
       id="g36"
       transform="matrix(1,0,0,0.9976391,0,3.2739399)">
      <g
         id="g34">
        <path
           d="m 4955,5344 c -274,-89 -369,-119 -560,-178 -99,-31 -207,-64 -240,-75 -87,-27 -375,-117 -485,-151 -52,-16 -144,-45 -205,-64 -60,-19 -144,-44 -185,-56 -41,-13 -178,-55 -305,-96 -126,-40 -297,-94 -380,-119 -82,-26 -197,-62 -255,-80 -83,-27 -264,-81 -369,-111 -9,-3 -6,-10 12,-24 l 25,-20 153,50 c 134,42 1205,376 1484,461 149,46 388,121 685,214 146,45 355,111 465,145 110,35 226,71 259,82 32,10 60,17 62,15 3,-2 4,-886 4,-1963 V 1414 l 29,-17 c 29,-17 29,-17 102,32 83,55 484,410 968,856 89,83 200,184 246,225 46,41 149,136 230,210 81,74 189,173 240,220 261,239 589,542 660,609 44,42 193,180 330,308 138,127 292,274 343,326 l 94,94 -29,11 c -15,6 -68,24 -118,40 -114,37 -302,103 -425,149 -52,20 -122,44 -155,53 -33,10 -118,40 -190,66 -215,78 -497,175 -540,185 -22,6 -49,15 -59,21 -10,5 -44,19 -75,29 -81,29 -176,62 -256,91 -73,27 -207,72 -335,114 -41,13 -84,29 -95,34 -11,5 -126,46 -255,91 -129,45 -269,94 -310,109 -173,64 -371,130 -386,129 -5,0 -85,-25 -179,-55 z"
           id="path28" />
        <path
           d="m 2890,2785 c 0,-43 1,-45 30,-45 29,0 30,2 30,45 0,43 -1,45 -30,45 -29,0 -30,-2 -30,-45 z"
           id="path30" />
        <path
           d="m 2890,2615 c 0,-32 2,-35 30,-35 28,0 30,3 30,35 0,32 -2,35 -30,35 -28,0 -30,-3 -30,-35 z"
           id="path32" />
      </g>
    </g>
    <g
       fill="#ebe800"
       id="g42">
      <g
         id="g40">
        <path
           d="m 5050,5361 c -47,-16 -175,-56 -285,-91 -110,-34 -319,-100 -465,-145 -297,-93 -536,-168 -685,-214 -185,-57 -1329,-412 -1475,-458 -80,-25 -148,-49 -153,-53 -4,-3 128,-134 293,-290 l 300,-284 v -699 -698 l 123,6 c 67,3 150,8 183,11 l 62,5 1,79 c 1,67 -1,79 -16,83 -17,4 -17,5 0,6 15,1 17,12 17,76 0,60 -3,75 -15,75 -8,0 -15,7 -15,15 0,8 7,15 15,15 13,0 14,43 11,335 -1,184 -1,337 2,340 3,2 53,-39 111,-93 58,-53 126,-115 151,-136 49,-43 612,-581 885,-845 276,-268 417,-404 655,-631 124,-118 258,-246 298,-285 40,-38 80,-74 88,-78 12,-7 14,231 16,1775 2,2313 2,2188 -8,2198 -5,5 -45,-3 -94,-19 z"
           id="path38" />
      </g>
    </g>
    <g
       id="g48"
       transform="matrix(1.2151146,0,0,1.2151146,-1998.1796,-1618.969)">
      <text
         x="4400"
         y="4000"
         text-anchor="right"
         font-size="900px"
         font-family="'FS Brabo', sans-serif"
         id="text44"
         style="font-style:normal;font-variant:normal;font-weight:normal;font-stretch:normal;font-family:'FS Brabo';-inkscape-font-specification:'FS Brabo'"><tspan
           style="font-style:normal;font-variant:normal;font-weight:normal;font-stretch:normal;font-family:'FS Brabo';-inkscape-font-specification:'FS Brabo'"
           id="tspan3836">House of</tspan></text>
      <text
         x="4400"
         y="5000"
         text-anchor="right"
         font-size="1400px"
         font-family="'FS Brabo', sans-serif"
         id="text46"><tspan
           style="font-style:normal;font-variant:normal;font-weight:normal;font-stretch:normal;font-family:'FS Jack';-inkscape-font-specification:'FS Jack'"
           id="tspan8770">YAML</tspan></text>
    </g>
  </g>
</svg>
