<?xml version="1.0" encoding="UTF-8" standalone="no"?>
<svg
   width="1024"
   height="1024"
   viewBox="0 0 10240 10240"
   version="1.1"
   id="svg50"
   sodipodi:docname="logo.svg"
   inkscape:version="1.1.2 (0a00cf5339, 2022-02-04)"
   xmlns:inkscape="http://www.inkscape.org/namespaces/inkscape"
   xmlns:sodipodi="http://sodipodi.sourceforge.net/DTD/sodipodi-0.dtd"
   xmlns="http://www.w3.org/2000/svg"
   xmlns:svg="http://www.w3.org/2000/svg">
  <defs
     id="defs54" />
  <sodipodi:namedview
     id="namedview52"
     pagecolor="#ffffff"
     bordercolor="#666666"
     borderopacity="1.0"
     inkscape:pageshadow="2"
     inkscape:pageopacity="0.0"
     inkscape:pagecheckerboard="0"
     showgrid="false"
     inkscape:zoom="0.49649392"
     inkscape:cx="658.61834"
     inkscape:cy="636.46298"
     inkscape:window-width="1902"
     inkscape:window-height="1848"
     inkscape:window-x="4484"
     inkscape:window-y="146"
     inkscape:window-maximized="1"
     inkscape:current-layer="text46" />
  <g
     fill="#4b8a21"
     id="g10"
     transform="matrix(1.5690819,0,0,1.5690819,-3157.6214,-2097.7177)">
    <g
       id="g8">
      <path
         d="m 6013,6953 c -10,-4 -13,-155 -13,-711 0,-389 3,-717 6,-729 5,-16 26,-28 97,-52 51,-18 175,-61 277,-97 422,-151 463,-164 512,-164 h 48 v 374 c 0,206 2,380 5,388 3,8 -80,103 -202,234 -115,121 -284,303 -377,405 -176,191 -335,360 -339,358 -1,0 -8,-3 -14,-6 z"
         id="path2" />
      <path
         d="m 7400,5466 c 0,-33 2,-36 31,-36 h 30 l -21,30 c -31,44 -40,45 -40,6 z"
         id="path4" />
      <path
         d="m 7490,5369 c 0,-30 8,-43 50,-83 38,-36 56,-47 77,-44 26,3 24,6 -50,83 l -76,80 z"
         id="path6" />
    </g>
  </g>
  <g
     fill="#64a520"
     id="g18"
     transform="matrix(1.5690819,0,0,1.5690819,-3157.6214,-2097.7177)">
    <g
       id="g16">
      <path
         d="m 5147,7778 c -15,-12 -16,-110 -20,-1183 -2,-643 -1,-1180 1,-1192 3,-16 17,-26 56,-39 129,-42 362,-126 371,-135 5,-5 17,-9 27,-9 21,0 206,-63 246,-84 15,-7 50,-19 77,-25 28,-7 68,-20 90,-30 22,-9 78,-30 125,-45 89,-29 121,-40 695,-242 198,-69 416,-145 485,-169 69,-23 135,-47 145,-52 11,-6 99,-36 195,-67 96,-32 193,-65 215,-75 22,-9 85,-32 140,-50 55,-19 110,-40 122,-47 12,-8 31,-14 42,-14 10,0 56,-13 102,-30 77,-27 84,-28 101,-13 47,42 5,122 -183,355 -48,60 -156,183 -241,275 -86,93 -182,199 -214,238 -33,38 -91,103 -129,145 -39,41 -93,100 -120,130 -287,317 -543,580 -559,574 -8,-3 -10,-109 -8,-384 3,-367 3,-380 -16,-380 -18,0 -117,34 -482,164 -102,36 -226,79 -277,97 -71,24 -92,36 -97,52 -11,40 -7,1377 4,1377 25,0 0,33 -143,183 -85,89 -210,221 -278,294 -182,192 -408,393 -444,393 -6,0 -19,-6 -28,-12 z"
         id="path12" />
      <path
         d="m 2928,3483 c -15,-4 -16,-46 -15,-518 l 2,-514 70,-6 c 39,-4 93,-7 120,-8 l 50,-2 3,418 c 2,429 4,441 40,405 9,-9 12,-5 11,18 -1,24 -19,45 -104,122 -104,93 -119,101 -177,85 z"
         id="path14" />
    </g>
  </g>
  <g
     fill="#a8cd0a"
     id="g26"
     transform="matrix(1.5690819,0,0,1.5690819,-3157.6214,-2097.7177)">
    <g
       id="g24">
      <path
         d="m 5070,7717 c -41,-35 -178,-169 -305,-297 -126,-129 -440,-446 -696,-705 -530,-535 -780,-790 -1415,-1445 -371,-383 -522,-550 -636,-703 -50,-67 -58,-85 -58,-122 0,-45 15,-60 55,-56 17,2 265,77 520,158 44,14 136,42 205,63 69,21 208,65 310,98 102,33 219,69 260,82 41,12 125,37 185,56 61,19 153,48 205,64 110,34 398,124 485,151 33,11 141,44 240,75 177,55 233,72 548,173 105,34 167,49 185,45 27,-6 194,-63 332,-114 41,-15 181,-64 310,-109 129,-45 244,-86 255,-91 11,-5 54,-21 95,-34 128,-42 262,-87 335,-114 80,-29 175,-62 256,-91 31,-10 65,-24 75,-29 10,-6 37,-15 59,-21 43,-10 325,-107 540,-185 72,-26 157,-56 190,-66 33,-9 103,-33 155,-53 52,-19 131,-47 175,-62 44,-15 107,-38 140,-50 33,-13 104,-37 159,-55 94,-30 99,-30 117,-14 11,10 16,21 12,25 -13,12 -154,59 -178,59 -11,0 -25,4 -31,9 -11,12 -203,83 -224,83 -8,1 -20,5 -26,10 -15,11 -384,140 -404,140 -8,1 -20,5 -26,10 -7,5 -70,28 -140,52 -71,24 -291,101 -489,170 -581,205 -606,213 -695,242 -47,15 -94,31 -104,37 -36,18 -154,55 -159,50 -3,-2 -16,2 -29,11 -27,17 -226,89 -248,89 -8,0 -19,3 -25,7 -10,8 -262,99 -372,135 -42,13 -53,21 -54,38 -1,12 0,533 0,1157 1,624 -2,1148 -6,1163 l -8,28 z"
         id="path20" />
      <path
         d="m 2917,3504 c -4,-4 -7,-34 -7,-66 0,-43 4,-58 14,-58 14,0 31,45 21,59 -8,14 32,20 45,7 9,-8 11,-2 8,24 -3,32 -6,35 -38,38 -20,2 -39,0 -43,-4 z"
         id="path22" />
    </g>
  </g>
  <g
     fill="#c0cf02"
     id="g36"
     transform="matrix(1.5690819,0,0,1.5653775,-3157.6214,-2092.5806)">
    <g
       id="g34">
      <path
         d="m 4955,5344 c -274,-89 -369,-119 -560,-178 -99,-31 -207,-64 -240,-75 -87,-27 -375,-117 -485,-151 -52,-16 -144,-45 -205,-64 -60,-19 -144,-44 -185,-56 -41,-13 -178,-55 -305,-96 -126,-40 -297,-94 -380,-119 -82,-26 -197,-62 -255,-80 -83,-27 -264,-81 -369,-111 -9,-3 -6,-10 12,-24 l 25,-20 153,50 c 134,42 1205,376 1484,461 149,46 388,121 685,214 146,45 355,111 465,145 110,35 226,71 259,82 32,10 60,17 62,15 3,-2 4,-886 4,-1963 V 1414 l 29,-17 c 29,-17 29,-17 102,32 83,55 484,410 968,856 89,83 200,184 246,225 46,41 149,136 230,210 81,74 189,173 240,220 261,239 589,542 660,609 44,42 193,180 330,308 138,127 292,274 343,326 l 94,94 -29,11 c -15,6 -68,24 -118,40 -114,37 -302,103 -425,149 -52,20 -122,44 -155,53 -33,10 -118,40 -190,66 -215,78 -497,175 -540,185 -22,6 -49,15 -59,21 -10,5 -44,19 -75,29 -81,29 -176,62 -256,91 -73,27 -207,72 -335,114 -41,13 -84,29 -95,34 -11,5 -126,46 -255,91 -129,45 -269,94 -310,109 -173,64 -371,130 -386,129 -5,0 -85,-25 -179,-55 z"
         id="path28" />
      <path
         d="m 2890,2785 c 0,-43 1,-45 30,-45 29,0 30,2 30,45 0,43 -1,45 -30,45 -29,0 -30,-2 -30,-45 z"
         id="path30" />
      <path
         d="m 2890,2615 c 0,-32 2,-35 30,-35 28,0 30,3 30,35 0,32 -2,35 -30,35 -28,0 -30,-3 -30,-35 z"
         id="path32" />
    </g>
  </g>
  <g
     fill="#ebe800"
     id="g42"
     transform="matrix(1.5690819,0,0,1.5690819,-3157.6214,-2097.7177)">
    <g
       id="g40">
      <path
         d="m 5050,5361 c -47,-16 -175,-56 -285,-91 -110,-34 -319,-100 -465,-145 -297,-93 -536,-168 -685,-214 -185,-57 -1329,-412 -1475,-458 -80,-25 -148,-49 -153,-53 -4,-3 128,-134 293,-290 l 300,-284 v -699 -698 l 123,6 c 67,3 150,8 183,11 l 62,5 1,79 c 1,67 -1,79 -16,83 -17,4 -17,5 0,6 15,1 17,12 17,76 0,60 -3,75 -15,75 -8,0 -15,7 -15,15 0,8 7,15 15,15 13,0 14,43 11,335 -1,184 -1,337 2,340 3,2 53,-39 111,-93 58,-53 126,-115 151,-136 49,-43 612,-581 885,-845 276,-268 417,-404 655,-631 124,-118 258,-246 298,-285 40,-38 80,-74 88,-78 12,-7 14,231 16,1775 2,2313 2,2188 -8,2198 -5,5 -45,-3 -94,-19 z"
         id="path38" />
    </g>
  </g>
  <g
     aria-label="House of"
     id="text44"
     style="font-size:1715.95px;font-family:'FS Brabo';-inkscape-font-specification:'FS Brabo';fill:#ffffff;stroke:#000000;stroke-width:50">
    <path
       d="m 1681.9716,4455.3081 c 70.3539,-5.1478 145.8557,-6.8638 211.0618,-6.8638 75.5018,0 147.5717,3.4319 197.3343,6.8638 l 6.8638,-5.1478 c 5.1478,-15.4436 10.2957,-44.6147 12.0116,-66.9221 -24.0233,-3.4319 -73.7858,-12.0116 -114.9686,-20.5914 -12.0117,-1.7159 -17.1595,-8.5797 -17.1595,-24.0233 -1.716,-114.9686 -1.716,-262.5403 -1.716,-435.8512 h 447.8629 c 48.0466,0 87.5135,-1.716 125.2644,-6.8638 1.7159,178.4587 0,334.6102 -1.716,442.715 0,15.4436 -5.1478,22.3074 -20.5914,25.7393 -34.319,8.5797 -65.2061,15.4435 -89.2294,20.5914 l -6.8638,6.8638 c -3.4319,17.1595 -6.8638,44.6147 -6.8638,63.4901 70.354,-5.1478 147.5717,-6.8638 214.4938,-6.8638 73.7858,0 142.4238,3.4319 192.1864,6.8638 l 6.8638,-5.1478 c 5.1478,-15.4436 12.0116,-44.6147 12.0116,-66.9221 -25.7392,-3.4319 -75.5018,-12.0116 -109.8208,-18.8754 -20.5914,-3.4319 -24.0233,-10.2957 -24.0233,-25.7393 0,-118.4005 -1.7159,-286.5636 -1.7159,-487.3297 0,-204.1981 -1.716,-336.3262 1.7159,-453.0108 0,-13.7276 6.8638,-24.0233 22.3074,-27.4552 37.7509,-6.8638 70.3539,-10.2957 90.9453,-13.7276 l 6.8638,-5.1479 c 6.8638,-24.0233 8.5798,-53.1944 8.5798,-70.3539 -70.354,3.4319 -145.8558,5.1478 -211.0619,5.1478 -75.5018,0 -145.8557,-1.7159 -197.3342,-5.1478 l -6.8638,5.1478 c -5.1479,17.1595 -8.5798,41.1828 -10.2957,70.354 30.8871,3.4319 65.2061,6.8638 109.8208,15.4435 10.2957,1.716 18.8754,6.8638 18.8754,24.0233 1.716,123.5484 1.716,276.268 1.716,413.544 h -446.147 c -48.0466,0 -89.2294,1.7159 -126.9803,6.8638 0,-144.1398 0,-305.4391 1.716,-418.6918 0,-13.7276 5.1478,-24.0233 20.5914,-27.4552 36.0349,-6.8638 75.5018,-10.2957 96.0932,-13.7276 l 6.8638,-5.1479 c 5.1478,-20.5914 6.8638,-51.4785 6.8638,-70.3539 -70.354,3.4319 -147.5717,5.1478 -214.4938,5.1478 -73.7858,0 -145.8557,-1.7159 -197.3342,-5.1478 l -6.8638,5.1478 c -5.1479,15.4436 -10.2957,48.0466 -10.2957,70.354 30.8871,3.4319 75.5018,8.5797 109.8208,15.4435 10.2957,1.716 20.5914,6.8638 20.5914,24.0233 1.7159,118.4006 1.7159,252.2447 1.7159,451.2949 0,204.198 1.716,365.4973 -1.7159,490.7616 0,15.4436 -5.1479,22.3074 -20.5914,25.7393 -36.035,8.5797 -70.354,17.1595 -92.6613,20.5914 l -6.8638,6.8638 c -3.4319,17.1595 -6.8638,44.6147 -6.8638,63.4901 z"
       id="path1390" />
    <path
       d="m 3355.0203,4470.7517 c 209.3459,0 377.509,-163.0153 377.509,-423.8397 0,-235.0851 -144.1398,-382.6568 -362.0654,-382.6568 -235.0851,0 -404.9642,164.7312 -404.9642,413.5439 0,231.6533 138.992,392.9526 389.5206,392.9526 z m 10.2957,-78.9337 c -156.1514,0 -240.2329,-137.276 -241.9489,-334.6103 -1.7159,-144.1397 60.0583,-314.0188 236.8011,-314.0188 126.9803,0 214.4937,108.1049 214.4937,332.8943 0,132.1281 -49.7625,315.7348 -209.3459,315.7348 z"
       id="path1392" />
    <path
       d="m 4516.7154,4486.1952 c 73.7859,-15.4435 140.7079,-25.7392 212.7778,-34.319 l 6.8638,-6.8638 c 5.1479,-13.7276 8.5798,-39.4668 8.5798,-61.7742 -32.6031,0 -72.0699,-1.7159 -108.1049,-8.5797 -12.0116,-1.716 -24.0233,-17.1595 -25.7392,-41.1828 -3.4319,-82.3656 -5.1479,-173.311 -5.1479,-298.5753 0,-121.8324 1.716,-248.8127 5.1479,-355.2016 l -20.5914,-12.0117 c -72.0699,5.1479 -168.1631,20.5914 -241.949,36.035 l -6.8638,5.1478 c -5.1478,13.7276 -8.5797,39.4669 -8.5797,58.3423 30.8871,1.716 77.2177,5.1479 106.3889,10.2957 10.2957,1.716 17.1595,6.8638 17.1595,22.3074 -1.716,85.7975 -1.716,175.0268 -1.716,240.2329 0,78.9337 0,168.1631 1.716,238.5171 -56.6264,54.9104 -125.2644,87.5134 -192.1864,87.5134 -97.8092,0 -154.4355,-46.3306 -156.1515,-161.2993 -1.7159,-123.5484 0,-238.517 0,-343.1899 0,-58.3423 1.716,-114.9687 5.1479,-181.8907 l -20.5914,-12.0117 c -72.0699,5.1479 -168.1631,20.5914 -241.949,36.035 l -6.8638,5.1478 c -5.1478,13.7276 -8.5797,39.4669 -8.5797,58.3423 30.8871,1.716 77.2177,5.1479 106.3889,10.2957 10.2957,1.716 17.1595,6.8638 17.1595,22.3074 0,138.9919 -1.716,279.6998 -1.716,418.6917 0,175.0269 94.3773,252.2447 253.9606,252.2447 96.0932,0 173.311,-44.6147 248.8128,-116.6846 h 8.5797 c 8.5798,44.6147 18.8755,87.5134 30.8871,120.1165 z"
       id="path1394" />
    <path
       d="m 4890.7907,4448.4443 h 29.1711 c 63.4902,0 144.1398,22.3074 212.7778,22.3074 159.5833,0 277.9839,-102.957 277.9839,-236.8011 0,-145.8558 -120.1165,-185.3226 -240.233,-236.8011 -121.8325,-51.4785 -166.4472,-73.7858 -166.4472,-151.0036 0,-65.2061 49.7626,-109.8208 138.992,-109.8208 78.9337,0 123.5484,24.0233 152.7195,99.5251 8.5798,20.5914 15.4436,42.8988 20.5914,70.354 18.8755,0 42.8988,-5.1479 60.0583,-15.4436 l 3.4319,-6.8638 c -1.716,-63.4901 -3.4319,-140.7079 -8.5798,-200.7661 l -13.7276,-8.5798 c -8.5797,1.716 -25.7392,3.4319 -41.1828,3.4319 -41.1828,0 -109.8208,-13.7276 -169.879,-13.7276 -169.879,0 -281.4158,96.0932 -281.4158,212.7778 0,144.1398 97.8092,188.7545 223.0735,243.6649 109.8208,48.0466 193.9023,75.5018 193.9023,168.1631 0,65.2061 -61.7742,109.8208 -142.4238,109.8208 -77.2178,0 -147.5717,-39.4669 -181.8907,-102.957 -20.5914,-37.7509 -34.319,-73.7859 -48.0466,-108.1049 -20.5914,3.4319 -37.7509,10.2957 -51.4785,18.8755 l -6.8638,8.5797 c 6.8638,72.0699 15.4436,149.2877 29.1712,228.2214 z"
       id="path1396" />
    <path
       d="m 5911.7806,4470.7517 c 137.276,0 224.7895,-56.6264 283.1318,-114.9687 l 6.8638,-12.0116 c 1.7159,-24.0233 -1.716,-46.3307 -12.0117,-72.0699 -65.2061,54.9104 -135.56,89.2294 -209.3459,89.2294 -183.6066,0 -295.1434,-142.4239 -295.1434,-314.0189 v -27.4552 l 483.8979,15.4436 20.5914,-15.4436 c 8.5798,-20.5914 15.4436,-54.9104 15.4436,-92.6612 0,-147.5717 -97.8092,-262.5404 -279.6999,-262.5404 -221.3575,0 -382.6568,180.1748 -382.6568,413.5439 0,236.8011 135.56,392.9526 368.9292,392.9526 z M 5693.855,3950.8189 c 22.3073,-116.6846 87.5134,-211.0619 209.3459,-211.0619 97.8091,0 144.1398,72.0699 144.1398,163.0153 0,15.4435 -3.4319,34.319 -6.8638,48.0466 z"
       id="path1398" />
    <path
       d="m 7087.2036,4470.7517 c 209.3459,0 377.509,-163.0153 377.509,-423.8397 0,-235.0851 -144.1398,-382.6568 -362.0655,-382.6568 -235.0851,0 -404.9642,164.7312 -404.9642,413.5439 0,231.6533 138.992,392.9526 389.5207,392.9526 z m 10.2957,-78.9337 c -156.1515,0 -240.233,-137.276 -241.949,-334.6103 -1.7159,-144.1397 60.0583,-314.0188 236.8011,-314.0188 126.9803,0 214.4938,108.1049 214.4938,332.8943 0,132.1281 -49.7626,315.7348 -209.3459,315.7348 z"
       id="path1400" />
    <path
       d="m 7586.5396,4455.3081 c 51.4785,-3.4319 128.6963,-6.8638 202.4821,-6.8638 72.0699,0 168.1631,3.4319 219.6416,6.8638 l 8.5798,-5.1478 c 6.8638,-15.4436 12.0116,-39.4669 12.0116,-66.9221 -27.4552,-3.4319 -89.2294,-12.0116 -142.4238,-20.5914 -17.1595,-3.4319 -24.0233,-15.4435 -24.0233,-34.319 -1.716,-78.9337 -1.716,-183.6066 -1.716,-255.6765 0,-92.6613 0,-204.198 1.716,-293.4274 l 240.233,5.1478 6.8638,-8.5797 c 10.2957,-24.0233 17.1595,-61.7742 20.5914,-89.2294 h -183.6067 c -32.603,0 -63.4901,1.7159 -85.7975,5.1478 0,-29.1711 -1.7159,-87.5134 -1.7159,-130.4122 0,-135.56 12.0116,-303.7231 156.1514,-303.7231 58.3423,0 132.1282,44.6147 175.0269,87.5134 h 17.1595 c 29.1712,-22.3073 56.6264,-66.922 56.6264,-111.5367 0,-46.3307 -87.5135,-66.9221 -163.0153,-66.9221 -211.0618,0 -391.2366,142.4239 -391.2366,444.4311 v 49.7625 c 0,20.5914 -8.5797,27.4552 -24.0233,30.8871 -32.603,8.5798 -80.6496,18.8755 -104.6729,24.0233 l -5.1479,5.1479 c -5.1478,17.1595 -6.8638,41.1828 -6.8638,61.7742 32.6031,-1.716 85.7975,-1.716 118.4006,-1.716 12.0116,0 20.5914,5.1479 20.5914,17.1595 1.7159,96.0932 1.7159,193.9023 1.7159,277.9839 0,87.5134 0,176.7428 -1.7159,247.0968 0,27.4552 -3.4319,34.319 -17.1595,39.4668 -30.8871,10.2957 -66.9221,18.8755 -89.2294,24.0233 l -6.8638,5.1479 c -5.1479,15.4435 -8.5798,37.7509 -8.5798,63.4901 z"
       id="path1402" />
  </g>
  <g
     aria-label="YAML"
     id="text46"
     style="font-size:2669.26px;font-family:'FS Brabo', sans-serif;fill:#ffffff;stroke:#000000;stroke-width:50">
    <path
       d="m 1628.2052,4555.9773 c 136.1323,411.0661 360.3501,971.6107 547.1983,1313.276 v 485.8053 h 659.3072 v -485.8053 c 173.5019,-341.6653 405.7275,-902.2099 549.8676,-1313.276 h -677.9921 c -58.7237,264.2568 -122.7859,491.1439 -192.1867,718.031 h -16.0155 c -72.0701,-226.8871 -133.463,-453.7742 -192.1868,-718.031 z"
       style="font-family:'FS Jack';-inkscape-font-specification:'FS Jack'"
       id="path1381" />
    <path
       d="m 3699.5467,4555.9773 c -125.4552,485.8054 -309.6342,1246.5445 -437.7586,1799.0813 h 653.9687 l 48.0466,-285.6108 h 328.319 l 48.0467,285.6108 h 653.9687 C 4863.3441,5802.5218 4679.1651,5041.7827 4551.0406,4555.9773 Z m 440.4279,499.1517 80.0778,563.2138 H 4041.212 c 21.3541,-170.8326 48.0467,-363.0193 77.4085,-563.2138 z"
       style="font-family:'FS Jack';-inkscape-font-specification:'FS Jack'"
       id="path1383" />
    <path
       d="m 5223.6891,4555.9773 c -50.7159,549.8676 -82.747,1275.9063 -96.0933,1799.0813 h 605.922 c -5.3385,-213.5408 -21.3541,-579.2294 -34.7004,-864.8402 h 8.0078 c 74.7393,226.8871 173.5019,517.8364 245.5719,696.6768 h 269.5953 c 66.7315,-178.8404 162.8248,-469.7897 234.8948,-694.0076 h 8.0078 c -10.677,285.6108 -18.6848,648.6302 -24.0233,862.171 h 605.922 c -13.3463,-523.175 -45.3774,-1249.2137 -96.0933,-1799.0813 h -621.9376 c -64.0623,253.5797 -144.1401,565.8832 -234.8949,832.8092 h -13.3463 c -88.0856,-266.926 -170.8327,-579.2295 -234.8949,-832.8092 z"
       style="font-family:'FS Jack';-inkscape-font-specification:'FS Jack'"
       id="path1385" />
    <path
       d="m 7230.9712,4555.9773 v 1799.0813 h 1249.2136 v -544.529 H 7890.2784 V 4555.9773 Z"
       style="font-family:'FS Jack';-inkscape-font-specification:'FS Jack'"
       id="path1387" />
  </g>
</svg>
